<?xml version="1.0" standalone="no"?><!DOCTYPE svg PUBLIC "-//W3C//DTD SVG 1.1//EN" "http://www.w3.org/Graphics/SVG/1.1/DTD/svg11.dtd"><svg t="1679969031326" class="icon" viewBox="0 0 1024 1024" version="1.1" xmlns="http://www.w3.org/2000/svg" p-id="1064" xmlns:xlink="http://www.w3.org/1999/xlink" width="256" height="256"><path d="M864 480l-320 0 0-320C544 140.8 531.2 128 512 128S480 140.8 480 160l0 320-320 0C140.8 480 128 492.8 128 512s12.8 32 32 32l320 0 0 320C480 883.2 492.8 896 512 896s32-12.8 32-32l0-320 320 0C883.2 544 896 531.2 896 512S883.2 480 864 480z" fill="#6D7174" p-id="1065"></path></svg>